<svg width="185" height="67" viewBox="0 0 185 67" fill="none" xmlns="http://www.w3.org/2000/svg">
<path d="M1.04004 64.72V21.57H15.25V64.72H1.04004ZM16.29 7.79001C16.29 8.89001 16.07 9.91001 15.64 10.87C15.21 11.82 14.63 12.65 13.91 13.34C13.19 14.03 12.32 14.58 11.31 14.99C10.3 15.39 9.24002 15.6 8.15002 15.6C5.84002 15.6 3.90003 14.83 2.34003 13.3C0.780027 11.77 0 9.94 0 7.8C0 6.76 0.200046 5.76 0.610046 4.81C1.02005 3.86 1.59003 3.03 2.34003 2.34C3.09003 1.65 3.96 1.08 4.94 0.650002C5.92 0.220002 6.99002 0 8.15002 0C9.31002 0 10.3 0.200001 11.31 0.610001C12.32 1.01 13.19 1.56001 13.91 2.26001C14.63 2.95001 15.21 3.78001 15.64 4.73001C16.07 5.68001 16.29 6.71 16.29 7.81V7.79001Z" fill="#3974F7"/>
<path d="M53.63 35.52C52.82 34.48 51.72 33.64 50.34 33.01C48.95 32.37 47.54 32.06 46.09 32.06C44.64 32.06 43.23 32.36 42.02 32.97C40.81 33.58 39.77 34.39 38.9 35.4C38.03 36.41 37.36 37.58 36.86 38.91C36.37 40.24 36.1201 41.65 36.1201 43.16C36.1201 44.67 36.35 46.08 36.81 47.41C37.27 48.74 37.95 49.91 38.85 50.92C39.74 51.93 40.81 52.72 42.06 53.3C43.31 53.88 44.7 54.17 46.26 54.17C47.7 54.17 49.13 53.9 50.55 53.35C51.96 52.8 53.11 52.01 53.97 50.97L61.86 60.59C60.07 62.32 57.7601 63.68 54.9301 64.66C52.1001 65.64 49.09 66.13 45.92 66.13C42.51 66.13 39.34 65.61 36.39 64.57C33.44 63.53 30.89 62.01 28.72 60.02C26.55 58.03 24.85 55.62 23.61 52.79C22.37 49.96 21.75 46.75 21.75 43.17C21.75 39.59 22.37 36.47 23.61 33.64C24.85 30.81 26.56 28.4 28.72 26.4C30.89 24.41 33.44 22.88 36.39 21.81C39.34 20.74 42.49 20.21 45.84 20.21C47.4 20.21 48.94 20.35 50.48 20.64C52.01 20.93 53.48 21.32 54.9 21.81C56.32 22.3 57.62 22.91 58.8 23.63C59.98 24.35 61.01 25.15 61.88 26.01L53.65 35.54L53.63 35.52Z" fill="#3974F7"/>
<path d="M97.8298 42.9699C97.8298 41.5799 97.5998 40.2299 97.1398 38.8999C96.6798 37.5699 96.0098 36.3999 95.1498 35.3899C94.2798 34.3799 93.2198 33.5599 91.9398 32.9199C90.6698 32.2799 89.1998 31.9699 87.5198 31.9699C85.8398 31.9699 84.3699 32.2899 83.0999 32.9199C81.8299 33.5599 80.7698 34.3799 79.9398 35.3899C79.0998 36.3999 78.4698 37.5699 78.0298 38.8999C77.5998 40.2299 77.3798 41.5899 77.3798 42.9699C77.3798 44.3499 77.5998 45.7099 78.0298 47.0399C78.4598 48.3699 79.1099 49.5699 79.9799 50.6399C80.8499 51.7099 81.9098 52.5599 83.1898 53.1999C84.4598 53.8399 85.9299 54.1499 87.6099 54.1499C89.2899 54.1499 90.7598 53.8299 92.0298 53.1999C93.2998 52.5699 94.3699 51.7099 95.2399 50.6399C96.1099 49.5699 96.7598 48.3699 97.1898 47.0399C97.6198 45.7099 97.8398 44.3499 97.8398 42.9699H97.8298ZM111.52 42.9699C111.52 46.4899 110.88 49.6899 109.61 52.5399C108.34 55.3999 106.61 57.8299 104.41 59.8199C102.21 61.8099 99.6698 63.3599 96.7798 64.4599C93.8898 65.5599 90.7998 66.1099 87.5098 66.1099C84.2198 66.1099 81.1998 65.5599 78.2798 64.4599C75.3598 63.3599 72.8199 61.8199 70.6599 59.8199C68.4899 57.8299 66.7698 55.3999 65.4998 52.5399C64.2298 49.6799 63.5898 46.4899 63.5898 42.9699C63.5898 39.4499 64.2298 36.2699 65.4998 33.4399C66.7698 30.6099 68.4899 28.2099 70.6599 26.2499C72.8299 24.2899 75.3698 22.7799 78.2798 21.7399C81.1998 20.6999 84.2698 20.1799 87.5098 20.1799C90.7498 20.1799 93.8898 20.6999 96.7798 21.7399C99.6698 22.7799 102.21 24.2799 104.41 26.2499C106.61 28.2099 108.34 30.6099 109.61 33.4399C110.88 36.2699 111.52 39.4499 111.52 42.9699Z" fill="#3974F7"/>
<path d="M147.13 64.7201V41.1501C147.13 39.9401 147.03 38.7801 146.83 37.6801C146.63 36.5801 146.3 35.6101 145.83 34.7801C145.37 33.9401 144.72 33.2801 143.88 32.7901C143.04 32.3001 141.99 32.0501 140.72 32.0501C139.45 32.0501 138.34 32.3001 137.38 32.7901C136.43 33.2801 135.63 33.9601 135 34.8301C134.36 35.7001 133.89 36.6901 133.57 37.8201C133.25 38.9501 133.09 40.1201 133.09 41.3301V64.7301H118.79V21.5801H132.57V27.5601H132.74C133.26 26.6401 133.94 25.7301 134.78 24.8301C135.62 23.9301 136.6 23.1701 137.73 22.5301C138.86 21.8901 140.08 21.3701 141.41 20.9701C142.74 20.5701 144.15 20.3601 145.66 20.3601C148.55 20.3601 151 20.8801 153.02 21.9201C155.04 22.9601 156.67 24.3001 157.92 25.9501C159.16 27.6001 160.06 29.4901 160.61 31.6301C161.16 33.7701 161.43 35.9001 161.43 38.0401V64.7301H147.13V64.7201Z" fill="#3974F7"/>
<circle cx="177" cy="57" r="8" fill="#3974F7"/>
</svg>
