<svg width="182" height="47" viewBox="0 0 182 47" fill="none" xmlns="http://www.w3.org/2000/svg">
<path d="M18.9518 46.448C13.7038 46.448 9.39442 45.2107 6.02375 42.736C2.65308 40.2187 0.83975 36.6347 0.58375 31.984H13.9598C14.0878 33.5627 14.5571 34.7147 15.3678 35.44C16.1784 36.1653 17.2238 36.528 18.5038 36.528C19.6558 36.528 20.5944 36.2507 21.3198 35.696C22.0878 35.0987 22.4718 34.288 22.4718 33.264C22.4718 31.9413 21.8531 30.9173 20.6158 30.192C19.3784 29.4667 17.3731 28.656 14.5998 27.76C11.6558 26.7787 9.26642 25.84 7.43175 24.944C5.63975 24.0053 4.06108 22.6613 2.69575 20.912C1.37308 19.12 0.71175 16.7947 0.71175 13.936C0.71175 11.0347 1.43708 8.56 2.88775 6.512C4.33842 4.42133 6.34375 2.84267 8.90375 1.776C11.4638 0.709332 14.3651 0.175999 17.6078 0.175999C22.8558 0.175999 27.0371 1.41333 30.1518 3.888C33.3091 6.32 34.9944 9.75467 35.2078 14.192H21.5758C21.5331 12.8267 21.1064 11.8027 20.2958 11.12C19.5278 10.4373 18.5251 10.096 17.2878 10.096C16.3491 10.096 15.5811 10.3733 14.9838 10.928C14.3864 11.4827 14.0878 12.272 14.0878 13.296C14.0878 14.1493 14.4078 14.896 15.0478 15.536C15.7304 16.1333 16.5624 16.6667 17.5438 17.136C18.5251 17.5627 19.9758 18.1173 21.8958 18.8C24.7544 19.7813 27.1011 20.7627 28.9358 21.744C30.8131 22.6827 32.4131 24.0267 33.7358 25.776C35.1011 27.4827 35.7838 29.6587 35.7838 32.304C35.7838 34.992 35.1011 37.4027 33.7358 39.536C32.4131 41.6693 30.4718 43.3547 27.9118 44.592C25.3944 45.8293 22.4078 46.448 18.9518 46.448ZM68.3033 46L54.1593 26.224V46H41.6153V0.879997H54.1593V20.336L68.1753 0.879997H82.6393L66.0633 22.768L83.4713 46H68.3033ZM129.077 0.879997L113.205 31.664V46H100.597V31.664L84.7248 0.879997H99.0608L106.997 18.288L114.933 0.879997H129.077ZM145.472 10.928V18.288H159.872V27.824H145.472V35.952H161.792V46H132.928V0.879997H161.792V10.928H145.472ZM174.07 46.512C171.852 46.512 170.06 45.9147 168.694 44.72C167.372 43.4827 166.71 41.9253 166.71 40.048C166.71 38.1707 167.372 36.6133 168.694 35.376C170.06 34.1387 171.852 33.52 174.07 33.52C176.246 33.52 177.996 34.1387 179.318 35.376C180.684 36.6133 181.366 38.1707 181.366 40.048C181.366 41.8827 180.684 43.4187 179.318 44.656C177.996 45.8933 176.246 46.512 174.07 46.512Z" fill="#3974F7"/>
</svg>
